<svg xmlns="http://www.w3.org/2000/svg" viewBox="0 0 38.675 48.048"><path d="M0 39.64c-.022-4.072 2.24-7.096 4.557-10.12 2.99-3.904 6.812-6.882 10.677-9.826.676-.515 1.228-1.188 1.837-1.788-.814-.373-1.635-.027-2.42.072-2.85.365-5.662-.154-8.492-.197-1.313-.02-2.66-.286-3.956.296-.475.213-.952-.023-1.197-.518-.317-.64-.485-1.326.025-1.926.832-.98 2.21-1.12 3.286-.438.552.35 1.018-.052 1.476-.298C11.198 12.013 14.9 7.63 17.207 1.994c.275-.676.432-1.902 1.145-1.796.69.104.572 1.332.688 2.086.18 1.18.253 2.372.39 3.558.03.248-.12.633.172.71.168.042.482-.222.636-.42 1.67-2.17 3.918-3.74 5.84-5.65.224-.226.44-.638.78-.42.324.208.1.638-.016.91-1.576 3.82-2.39 7.857-3.217 11.87-.55 2.678-.617 5.45-1.003 8.166-.27 1.906-.617 3.805-.71 5.73-.073 1.504.03 1.557 1.453 1.22 2.525-.596 5.037-1.33 7.67-.538 4.545 1.373 8.18 4.355 7.573 9.832-.293 2.652-1.386 4.973-3.266 6.896-.293.3-.637.695-1.067.486-.574-.277-.025-.654.057-.978.317-1.254-.693-2.336-2.382-2.576-1.704-.24-3.264.278-4.76.955-3.006 1.362-5.975 2.808-8.962 4.212-3.266 1.535-6.682 2.1-10.275 1.648-1.62-.203-3.19-.363-4.65-1.286C.683 44.95-.012 42.484 0 39.64"/><path d="M9.304 47.064c-1.55-.13-4.115-.06-6.22-1.832C1.245 43.69 1 41.586.98 39.402c-.034-3.71 2.014-6.454 4.082-9.28 3.132-4.282 7.386-7.284 11.4-10.573.69-.57 1.375-1.146 2.046-1.735.217-.192.47-.455.352-.756-.122-.313-.475-.17-.726-.155-2.438.15-4.872.568-7.317.384-2.024-.154-4.043-.322-6.074-.32-.233 0-.612.115-.656-.267-.033-.278.29-.343.5-.436 2.27-1.02 4.33-2.4 6.188-4.014C13.835 9.6 16.065 6.31 17.643 2.58c.1-.235.12-.64.445-.57.274.056.246.442.244.706-.016 1.465.473 2.887.33 4.368-.063.653-.257 1-.95 1-.323 0-.754.084-.682.51.072.417.455.333.806.27.692-.128 1.39-.362 2.1-.04.384.173.628-.05.81-.35.25-.412-.15-.59-.36-.67-.597-.226-.446-.426-.126-.804 1.432-1.69 3.044-3.197 4.665-4.695.167-.154.35-.476.573-.334.288.184.028.5-.058.718-1.3 3.32-1.983 6.808-2.652 10.28-.494 2.565-.62 5.206-.876 7.817-.188 1.93-1.1 3.81-.81 5.73.316 2.11-.995 2.893-2.306 3.98-2.41 1.998-4.77 4.046-7.4 5.76-2.1 1.37-4.41 1.84-6.875 1.7-.63-.036-1.146-.318-1.532-.816-.175-.228-.36-.476-.65-.26-.303.226-.163.515 0 .796.616 1.06 2.035 1.358 3.855 1.176 3.546-.355 6.205-2.353 8.955-4.336 2.185-1.576 3.788-3.896 6.363-4.938 2.925-1.183 5.873-2.274 9.05-.856.19.084.398.142.574.248 1.04.633 1.038.996-.05 1.547-1.91.97-3.938 1.687-5.804 2.763-.81.467-.904.83-.1 1.294 1.183.68 2.374 1.352 3.596 1.954 1.53.753 1.588 1.268.54 2.573-1.473 1.84-3.467 2.686-5.59 3.464-1.634.6-3.194 1.432-4.735 2.257-2.73 1.463-5.615 2.26-9.686 2.244" fill="#D66344"/><path d="M37.753 36.298c-.116 2.078-.598 4.207-2.02 6.025-.106.14-.227.652-.518.096-1.015-1.936-2.74-2.76-4.767-2.304-.31.068-.75.387-.905.123-.2-.338.285-.605.518-.83 1.457-1.405 1.49-2.217-.593-3.47-.914-.552-1.88-1.018-2.81-1.545-.25-.143-.62-.36-.637-.568-.027-.363.447-.41.712-.537 1.767-.854 3.555-1.664 5.327-2.508.26-.125.618-.307.686-.535.372-1.277 1.03-.475 1.492-.182 2.217 1.4 3.51 3.367 3.515 6.233" fill="#FFF"/><path d="M21.4 11.707c-.143.63-.457 1.1-1.156 1.137-.44.023-.658-.293-.63-.684.05-.66.447-1.1 1.097-1.198.504-.077.606.354.69.745M14.75 12.455c-.524.05-.825-.123-.767-.574.082-.63.515-1.015 1.13-1.05.607-.035.555.51.583.894.06.79-.603.62-.947.73M14.44 17.555c.88-.104 2-.533 2.29-1.476.088-.29-.684-.19-.77.087-.167.548-.85.863-1.424.932-.132.015-.425.1-.433.27-.008.175.204.202.337.185"/></svg>