<?xml version="1.0" encoding="utf-8"?>
<!-- Generator: Adobe Illustrator 19.2.0, SVG Export Plug-In . SVG Version: 6.00 Build 0)  -->
<svg version="1.1" id="Vrstva_1" xmlns="http://www.w3.org/2000/svg" xmlns:xlink="http://www.w3.org/1999/xlink" x="0px" y="0px"
	 viewBox="0 0 99.2 104.9" style="enable-background:new 0 0 99.2 104.9;" xml:space="preserve">
<style type="text/css">
	.st0{fill:#D76445;}
</style>
<path class="st0" d="M26,99c-0.2,0.2-0.4,0.4-0.7,0.6C25.6,99.4,25.8,99.2,26,99C26,99,26,99,26,99z"/>
<path class="st0" d="M26.8,98.4c-0.2,0.2-0.5,0.4-0.7,0.6c0,0,0,0,0,0C26.3,98.8,26.5,98.6,26.8,98.4z"/>
<path class="st0" d="M71.1,32.8c-2.4-2.3-6-2.6-9-1.7c-1.8,0.5-2.6-2.3-0.8-2.9c1.5-0.4,3.2-0.6,4.8-0.5c0-0.1,0-0.3,0-0.4
	c-0.2-6.6-1.1-13.5-2.5-20c-0.1-0.4-0.4-1.2-0.7-2c0,0-0.1,0.1-0.1,0.1c-1.6,2.9-2.8,5.9-4.1,8.9c-2.5,5.7-4.7,12.3-8.5,17.2
	c-2.6,3.3-5.3,5.9-7.3,9.7c-1.1,2.1-1.7,4.6-3.4,6.3c-3.8,3.8-9.8,6.2-14.5,8.7c-4,2.1-8.1,4.1-12.2,6c-0.2,0.4-0.3,0.7-0.3,1.1
	c0.2,1,1,2.2,1.2,3.1c2.3,1.7,7.1,1.7,9.5,1.9c4.7,0.4,9.5,0.4,14.3,0.4c4.1,0,7.8-1,11.5-1.8c0.2-0.4,0.6-0.7,1.2-0.8
	c-0.6,0.1,0.6-0.2,0.9-0.2c0.8-0.2,1.6-0.5,2.3-0.9c2.8-1.5,4.8-4.1,6-7.1c0.7-1.8,3.5-1,2.9,0.8c-1,2.6-2.6,5.1-4.7,7
	c2.7-0.3,5.4-0.7,8.2-1.6c1.4-0.5,2.5,0.7,1.2,1.7c-6.7,5.2-10.5,9.6-17.2,14.9c-6.9,5.5-16.2,11.7-23,17.7
	c-0.2,0.2-0.5,0.4-0.7,0.6c7.8,3.4,16.5,5.4,25.6,5.4c9.3,0,18.1-2,26-5.5c0-0.3,0.1-0.5,0.1-0.7c0.3-3.5,1.1-7.9,1.4-11.3
	c1-13.9,2.9-27.7,3.4-41.6c0.4-11,5.1-21.1,8.6-31.4c0.8-2.3,1.4-4.6,2.3-6.8c0.2-0.6,1.6-3.1,1.5-3.3C94.5,2.9,83.4,14,82.3,15.1
	c-4.1,4.4-8,9.3-12.5,13.3c-0.1,0-0.1,0.1-0.2,0.1c1.3,0.5,2.5,1.2,3.5,2.2C74.5,32.1,72.4,34.2,71.1,32.8z M53.7,44.6
	c-0.3,1.5-4.4,0.5-5.3,0.2c-0.8-0.3-2.5-1.7,0.8-4.6c1.3-1.2,3-1,4.6-0.2S54,43.1,53.7,44.6z M70.3,43.6c-0.3,1-1.2,4-3.5,4
	c-2.3,0-4.1-2-3.3-3.8c0.8-1.8,2.1-3.3,4.3-3.5C70.2,40.1,70.7,42.6,70.3,43.6z"/>
<path d="M53.9,40c-1.6-0.8-3.3-1-4.6,0.2c-3.3,2.9-1.6,4.3-0.8,4.6c0.8,0.3,4.9,1.3,5.3-0.2C54,43.1,55.5,40.8,53.9,40z"/>
<path d="M67.9,40.3c-2.1,0.2-3.5,1.6-4.3,3.5c-0.8,1.8,1,3.8,3.3,3.8c2.3,0,3.1-3,3.5-4C70.7,42.6,70.2,40.1,67.9,40.3z"/>
<path d="M97.6,1.7c-1.1-1.6-3.6-0.3-4.8,0.4c-5.1,3.1-9.3,8.4-13.3,12.7c-2.5,2.6-4.9,5.3-7.3,7.9c-0.3,0.4-2,1.8-3.3,3
	c-0.1-1-0.3-2-0.4-2.8c-0.3-4-0.8-8-1.5-11.9c-0.3-2-0.5-10.7-4.3-9.3c-1.6,0.6-2.5,3.1-3.2,4.4c-1.7,3.5-3.2,7.1-4.8,10.7
	c-1.7,3.8-3.3,7.7-5.3,11.3c-1.9,3.4-4.9,5.8-7.1,9.1c-2,3-3,7.4-5.6,9.8c-2.7,2.5-6.7,4.2-10,6c-4.8,2.5-9.6,4.9-14.5,7.2
	c-1.6-1.1-4.8-2-4.8-2c-4.9,0.3-7.9,3.6-6.6,5.9c1.3,2.3,1.6,5,4.9,4.9c2.6,0,3.8-0.4,5.4-0.9c4.4,3.4,15.7,2.7,19.9,2.8
	c6.5,0.1,12.3-0.5,18.5-1.8c0.1,0,0.2,0,0.4,0c1-0.1,2-0.4,3-0.7c2.8-0.6,5.7-0.8,8.5-1.3c-11.2,8.7-22.3,17.5-33,26.6
	c-1.6,1.4-3.2,2.8-4.8,4.3c0.4,0.2,0.7,0.3,1.1,0.5c0.4,0.2,0.7,0.3,1.1,0.5c0.2-0.2,0.5-0.4,0.7-0.6c6.8-6,16.1-12.3,23-17.7
	c6.7-5.3,10.5-9.7,17.2-14.9c1.4-1.1,0.3-2.2-1.2-1.7c-2.8,0.9-5.4,1.3-8.2,1.6c2.1-1.9,3.6-4.4,4.7-7c0.7-1.8-2.2-2.6-2.9-0.8
	c-1.2,3-3.1,5.6-6,7.1c-0.7,0.4-1.5,0.7-2.3,0.9c-0.2,0.1-1.5,0.3-0.9,0.2c-0.6,0.1-1,0.4-1.2,0.8c-3.8,0.8-7.5,1.9-11.5,1.8
	c-4.8,0-9.5-0.1-14.3-0.4c-2.4-0.2-7.2-0.2-9.5-1.9c-0.2-0.9-1-2.1-1.2-3.1c0.1-0.3,0.2-0.7,0.3-1.1c4.1-1.9,8.2-3.9,12.2-6
	c4.7-2.4,10.7-4.8,14.5-8.7c1.7-1.7,2.3-4.2,3.4-6.3c2-3.8,4.8-6.4,7.3-9.7c3.8-4.9,6-11.6,8.5-17.2c1.3-3,2.5-6.1,4.1-8.9
	c0,0,0-0.1,0.1-0.1c0.3,0.8,0.6,1.6,0.7,2c1.3,6.5,2.2,13.3,2.5,20c0,0.1,0,0.3,0,0.4c-1.6-0.1-3.3,0.1-4.8,0.5
	c-1.8,0.5-1.1,3.4,0.8,2.9c3-0.8,6.7-0.6,9,1.7c1.4,1.3,3.5-0.8,2.1-2.1c-1-1-2.2-1.7-3.5-2.2c0.1,0,0.1-0.1,0.2-0.1
	c4.5-4,8.4-8.9,12.5-13.3c1-1.1,12.1-12.2,12.5-11.4c0.1,0.2-1.2,2.6-1.5,3.3c-0.9,2.2-1.5,4.5-2.3,6.8c-3.5,10.3-8.1,20.5-8.6,31.4
	C82,59,80.1,72.9,79.1,86.8c-0.2,3.5-1,7.9-1.4,11.3c0,0.2-0.1,0.5-0.1,0.7c0.1-0.1,0.3-0.1,0.4-0.2c0.5-0.2,1-0.5,1.5-0.7
	c0.5-0.2,1-0.5,1.5-0.8c1.4-13.6,2.1-27.2,3.6-40.7c0.7-6.2-0.2-13.2,1.4-19.2c1.5-5.8,3.8-11.5,5.7-17.2c1.6-4.6,2.8-9.5,4.7-14
	C96.8,5.2,98.5,3.1,97.6,1.7z"/>
</svg>
